#N canvas 302 40 1243 837 12;
#X obj 854 226 phasor~;
#X obj 797 227 phasor~;
#X obj 799 313 *~ 0.5;
#X obj 68 29 dac~;
#X obj 0 13 bng 19 250 50 0 s_c r_c empty 0 -10 0 12 #fcfcfc #000000 #000000;
#X obj 50 13 bng 19 250 50 0 s_d r_d empty 0 -10 0 12 #fcfcfc #000000 #000000;
#X obj 100 13 bng 19 250 50 0 s_e r_e empty 0 -10 0 12 #fcfcfc #000000 #000000;
#X obj 150 13 bng 19 250 50 0 s_f# r_f# empty 0 -10 0 12 #fcfcfc #000000 #000000;
#X obj 175 13 bng 19 250 50 0 s_g r_g empty 0 -10 0 12 #fcfcfc #000000 #000000;
#X obj 225 13 bng 19 250 50 0 s_a r_a empty 0 -10 0 12 #fcfcfc #000000 #000000;
#X obj 275 13 bng 19 250 50 0 s_b r_b empty 0 -10 0 12 #fcfcfc #000000 #000000;
#X obj 1092 50 r s_c;
#X msg 1092 79 60;
#X obj 1190 50 r s_d;
#X msg 1190 79 62;
#X obj 1285 50 r s_e;
#X msg 1285 79 64;
#X obj 1330 50 r s_f;
#X msg 1330 79 65;
#X obj 1424 49 r s_g;
#X msg 1424 78 67;
#X obj 1512 49 r s_a;
#X msg 1512 78 69;
#X obj 1609 49 r s_b;
#X msg 1609 78 71;
#X obj 1227 154 mtof;
#X obj 641 275 lop~ 200;
#X obj 799 261 lop~ 200;
#X obj 854 194 * 1.01;
#X obj 1137 50 r s_c#;
#X msg 1137 79 61;
#X msg 1238 79 63;
#X obj 1373 49 r s_f#;
#X msg 1373 78 66;
#X msg 1469 78 68;
#X msg 1556 78 70;
#X obj 1556 49 r s_a#;
#X obj 640 153 mtof;
#X msg 505 78 36;
#X msg 550 78 37;
#X msg 603 78 38;
#X msg 651 78 39;
#X msg 698 78 40;
#X msg 743 78 41;
#X msg 786 77 42;
#X msg 837 77 43;
#X msg 882 77 44;
#X msg 925 77 45;
#X msg 969 77 46;
#X msg 1022 77 47;
#X obj 697 239 phasor~;
#X obj 640 240 phasor~;
#X obj 697 207 * 1.01;
#X obj 25 13 bng 19 250 50 0 s_c# r_c# empty 0 -10 0 12 #fcfcfc #000000 #000000;
#X obj 505 49 r s_dc;
#X obj 550 49 r s_dc#;
#X obj 603 49 r s_dd;
#X obj 651 49 r s_dd#;
#X obj 698 49 r s_de;
#X obj 743 49 r s_df;
#X obj 786 48 r s_df#;
#X obj 837 48 r s_dg;
#X obj 882 48 r s_dg#;
#X obj 925 48 r s_da;
#X obj 969 48 r s_da#;
#X obj 1022 48 r s_db;
#X obj 1238 50 r s_d#;
#X obj 1469 49 r s_g#;
#X obj 75 13 bng 19 250 50 0 s_d# r_d# empty 0 -10 0 12 #fcfcfc #000000 #000000;
#X obj 200 13 bng 19 250 50 0 s_g# r_g# empty 0 -10 0 12 #fcfcfc #000000 #000000;
#X obj 250 13 bng 19 250 50 0 s_a# r_a# empty 0 -10 0 12 #fcfcfc #000000 #000000;
#X obj 0 264 bng 19 250 50 0 s_dc r_dc empty 0 -10 0 12 #fcfcfc #000000 #000000;
#X obj 50 264 bng 19 250 50 0 s_dd r_dd empty 0 -10 0 12 #fcfcfc #000000 #000000;
#X obj 100 264 bng 19 250 50 0 s_de r_de empty 0 -10 0 12 #fcfcfc #000000 #000000;
#X obj 150 264 bng 19 250 50 0 s_df# r_df# empty 0 -10 0 12 #fcfcfc #000000 #000000;
#X obj 175 264 bng 19 250 50 0 s_dg r_dg empty 0 -10 0 12 #fcfcfc #000000 #000000;
#X obj 225 264 bng 19 250 50 0 s_da r_da empty 0 -10 0 12 #fcfcfc #000000 #000000;
#X obj 275 264 bng 19 250 50 0 s_db r_db empty 0 -10 0 12 #fcfcfc #000000 #000000;
#X obj 25 264 bng 19 250 50 0 s_dc# r_dc# empty 0 -10 0 12 #fcfcfc #000000 #000000;
#X obj 75 264 bng 19 250 50 0 s_dd# r_dd# empty 0 -10 0 12 #fcfcfc #000000 #000000;
#X obj 200 264 bng 19 250 50 0 s_dg# r_dg# empty 0 -10 0 12 #fcfcfc #000000 #000000;
#X obj 250 264 bng 19 250 50 0 s_da# r_da# empty 0 -10 0 12 #fcfcfc #000000 #000000;
#X obj 125 13 bng 19 250 50 0 s_f r_f empty 0 -10 0 12 #fcfcfc #000000 #000000;
#X obj 125 264 bng 19 250 50 0 s_df r_df empty 0 -10 0 12 #fcfcfc #000000 #000000;
#X connect 0 0 27 0;
#X connect 1 0 27 0;
#X connect 2 0 3 0;
#X connect 11 0 12 0;
#X connect 12 0 25 0;
#X connect 13 0 14 0;
#X connect 14 0 25 0;
#X connect 15 0 16 0;
#X connect 16 0 25 0;
#X connect 17 0 18 0;
#X connect 18 0 25 0;
#X connect 19 0 20 0;
#X connect 20 0 25 0;
#X connect 21 0 22 0;
#X connect 22 0 25 0;
#X connect 23 0 24 0;
#X connect 24 0 25 0;
#X connect 25 0 1 0;
#X connect 25 0 28 0;
#X connect 26 0 3 0;
#X connect 27 0 2 0;
#X connect 28 0 0 0;
#X connect 29 0 30 0;
#X connect 30 0 25 0;
#X connect 31 0 25 0;
#X connect 32 0 33 0;
#X connect 33 0 25 0;
#X connect 34 0 25 0;
#X connect 35 0 25 0;
#X connect 36 0 35 0;
#X connect 37 0 51 0;
#X connect 37 0 52 0;
#X connect 38 0 37 0;
#X connect 39 0 37 0;
#X connect 40 0 37 0;
#X connect 41 0 37 0;
#X connect 42 0 37 0;
#X connect 43 0 37 0;
#X connect 44 0 37 0;
#X connect 45 0 37 0;
#X connect 46 0 37 0;
#X connect 47 0 37 0;
#X connect 48 0 37 0;
#X connect 49 0 37 0;
#X connect 51 0 26 0;
#X connect 52 0 50 0;
#X connect 54 0 38 0;
#X connect 55 0 39 0;
#X connect 56 0 40 0;
#X connect 57 0 41 0;
#X connect 58 0 42 0;
#X connect 59 0 43 0;
#X connect 60 0 44 0;
#X connect 61 0 45 0;
#X connect 62 0 46 0;
#X connect 63 0 47 0;
#X connect 64 0 48 0;
#X connect 65 0 49 0;
#X connect 66 0 31 0;
#X connect 67 0 34 0;
