#N canvas 0 0 1920 989 12;
#N canvas 124 333 1149 848 oscillator1 0;
#X obj 108 65 inlet f;
#X obj 149 435 inlet fCutoff;
#X obj 366 66 inlet fmod;
#X obj 456 191 inlet moddepth;
#X obj 140 739 outlet~ sound;
#X obj 115 398 phasor~;
#X obj 365 104 osc~;
#X obj 372 161 snapshot~;
#X obj 438 279 t b f;
#X obj 436 333 pow;
#X msg 433 306 2;
#X obj 477 61 loadbang;
#X obj 438 233 *;
#X obj 108 280 *;
#X obj 136 235 t b f;
#X obj 477 127 metro 1;
#X obj 665 63 inlet volume;
#X obj 137 640 *~;
#X obj 136 690 *~ 0.8;
#X obj 437 369 s modfactosc1;
#X obj 134 195 r modfactosc1;
#X obj 665 109 s osc1vol;
#X obj 156 602 r osc1vol;
#X obj 124 497 lop~;
#X msg 477 97 1;
#X connect 0 0 13 0;
#X connect 1 0 23 1;
#X connect 2 0 6 0;
#X connect 3 0 12 1;
#X connect 5 0 23 0;
#X connect 6 0 7 0;
#X connect 7 0 12 0;
#X connect 8 0 10 0;
#X connect 8 1 9 1;
#X connect 9 0 19 0;
#X connect 10 0 9 0;
#X connect 11 0 24 0;
#X connect 12 0 8 0;
#X connect 13 0 5 0;
#X connect 14 0 13 0;
#X connect 14 1 13 1;
#X connect 15 0 7 0;
#X connect 16 0 21 0;
#X connect 17 0 18 0;
#X connect 18 0 4 0;
#X connect 20 0 14 0;
#X connect 22 0 17 1;
#X connect 23 0 17 0;
#X connect 24 0 15 0;
#X restore 63 556 pd oscillator1;
#N canvas 650 238 989 821 oscillator2 0;
#X obj 108 65 inlet f;
#X obj 153 456 inlet fCutoff;
#X obj 349 53 inlet fmod;
#X obj 457 181 inlet moddepth;
#X obj 137 744 outlet~ sound;
#X obj 115 398 phasor~;
#X obj 365 104 osc~;
#X obj 372 161 snapshot~;
#X obj 438 288 t b f;
#X obj 436 342 pow;
#X msg 433 315 2;
#X obj 455 41 loadbang;
#X obj 438 233 *;
#X obj 108 280 *;
#X obj 136 235 t b f;
#X obj 408 120 metro 1;
#X obj 665 63 inlet volume;
#X obj 137 640 *~;
#X obj 138 705 *~ 0.8;
#X obj 665 109 s osc2vol;
#X obj 156 602 r osc2vol;
#X obj 436 385 s modfactosc2;
#X obj 134 195 r modfactosc2;
#X obj 129 533 lop~;
#X msg 431 82 1;
#X connect 0 0 13 0;
#X connect 1 0 23 1;
#X connect 2 0 6 0;
#X connect 3 0 12 1;
#X connect 5 0 23 0;
#X connect 6 0 7 0;
#X connect 7 0 12 0;
#X connect 8 0 10 0;
#X connect 8 1 9 1;
#X connect 9 0 21 0;
#X connect 10 0 9 0;
#X connect 11 0 24 0;
#X connect 12 0 8 0;
#X connect 13 0 5 0;
#X connect 14 0 13 0;
#X connect 14 1 13 1;
#X connect 15 0 7 0;
#X connect 16 0 19 0;
#X connect 17 0 18 0;
#X connect 18 0 4 0;
#X connect 20 0 17 1;
#X connect 22 0 14 0;
#X connect 23 0 17 0;
#X connect 24 0 15 0;
#X restore 518 568 pd oscillator2;
#N canvas 463 160 989 821 oscillator3 0;
#X obj 108 65 inlet f;
#X obj 145 460 inlet fCutoff;
#X obj 366 66 inlet fmod;
#X obj 457 180 inlet moddepth;
#X obj 137 744 outlet~ sound;
#X obj 115 398 phasor~;
#X obj 365 104 osc~;
#X obj 372 161 snapshot~;
#X obj 434 303 t b f;
#X obj 432 357 pow;
#X msg 429 330 2;
#X obj 455 41 loadbang;
#X obj 438 233 *;
#X obj 108 280 *;
#X obj 136 235 t b f;
#X obj 408 120 metro 1;
#X obj 665 63 inlet volume;
#X obj 137 640 *~;
#X obj 138 705 *~ 0.8;
#X obj 665 109 s osc3vol;
#X obj 156 602 r osc3vol;
#X obj 427 418 s modfactosc3;
#X obj 134 195 r modfactosc3;
#X obj 119 526 lop~;
#X msg 437 91 1;
#X connect 0 0 13 0;
#X connect 1 0 23 1;
#X connect 2 0 6 0;
#X connect 3 0 12 1;
#X connect 5 0 23 0;
#X connect 6 0 7 0;
#X connect 7 0 12 0;
#X connect 8 0 10 0;
#X connect 8 1 9 1;
#X connect 9 0 21 0;
#X connect 10 0 9 0;
#X connect 11 0 24 0;
#X connect 12 0 8 0;
#X connect 13 0 5 0;
#X connect 14 0 13 0;
#X connect 14 1 13 1;
#X connect 15 0 7 0;
#X connect 16 0 19 0;
#X connect 17 0 18 0;
#X connect 18 0 4 0;
#X connect 20 0 17 1;
#X connect 22 0 14 0;
#X connect 23 0 17 0;
#X connect 24 0 15 0;
#X restore 970 540 pd oscillator3;
#N canvas 497 179 989 821 oscillator4 0;
#X obj 108 65 inlet f;
#X obj 142 434 inlet fCutoff;
#X obj 366 66 inlet fmod;
#X obj 457 188 inlet moddepth;
#X obj 137 744 outlet~ sound;
#X obj 115 398 phasor~;
#X obj 365 104 osc~;
#X obj 372 161 snapshot~;
#X obj 438 280 t b f;
#X obj 436 334 pow;
#X msg 433 307 2;
#X obj 455 41 loadbang;
#X obj 438 233 *;
#X obj 108 280 *;
#X obj 136 235 t b f;
#X obj 408 120 metro 1;
#X obj 665 63 inlet volume;
#X obj 137 640 *~;
#X obj 138 705 *~ 0.8;
#X obj 665 109 s osc4vol;
#X obj 156 602 r osc4vol;
#X obj 431 395 s modfactosc4;
#X obj 134 195 r modfactosc4;
#X obj 117 488 lop~;
#X msg 442 92 1;
#X connect 0 0 13 0;
#X connect 1 0 23 1;
#X connect 2 0 6 0;
#X connect 3 0 12 1;
#X connect 5 0 23 0;
#X connect 6 0 7 0;
#X connect 7 0 12 0;
#X connect 8 0 10 0;
#X connect 8 1 9 1;
#X connect 9 0 21 0;
#X connect 10 0 9 0;
#X connect 11 0 24 0;
#X connect 12 0 8 0;
#X connect 13 0 5 0;
#X connect 14 0 13 0;
#X connect 14 1 13 1;
#X connect 15 0 7 0;
#X connect 16 0 19 0;
#X connect 17 0 18 0;
#X connect 18 0 4 0;
#X connect 20 0 17 1;
#X connect 22 0 14 0;
#X connect 23 0 17 0;
#X connect 24 0 15 0;
#X restore 1493 549 pd oscillator4;
#X obj 70 805 r~ osc1;
#X obj 142 804 r~ osc2;
#X obj 208 804 r~ osc3;
#X obj 276 804 r~ osc4;
#X obj 62 608 s~ osc1;
#X obj 519 603 s~ osc2;
#X obj 969 589 s~ osc3;
#X obj 1491 590 s~ osc4;
#X msg 63 213 1;
#X msg 63 248 2;
#X msg 64 286 3;
#X msg 64 318 4;
#X obj 136 257 s oscnum;
#X obj 714 21 nbx 5 17 -1e+37 1e+37 0 0 s-num1 r-num1 empty 0 -10 0 12 #fcfcfc #000000 #000000 0 256;
#X obj 927 100 t b f;
#X obj 929 188 /;
#X msg 926 135 340;
#X obj 715 46 nbx 5 17 -1e+37 1e+37 0 0 s-num2 r-num2 empty 0 -10 0 12 #fcfcfc #000000 #000000 0 256;
#X obj 715 73 nbx 5 17 -1e+37 1e+37 0 0 s-num3 r-num3 empty 0 -10 0 12 #fcfcfc #000000 #000000 0 256;
#X obj 1246 73 t b f;
#X obj 1188 106 +;
#X obj 929 228 s f;
#X obj 1187 134 / 30;
#X obj 1188 189 t b f;
#X msg 1188 220 4000;
#X obj 1188 253 *;
#X obj 1188 283 s f_cutoff;
#X obj 715 100 nbx 5 17 -1e+37 1e+37 0 0 s-num4 r-num4 empty 0 -10 0 12 #fcfcfc #000000 #000000 0 256;
#X obj 1440 73 t b f;
#X msg 1440 97 340;
#X obj 1440 121 /;
#X obj 1439 177 s f_mod;
#X obj 1439 149 * 0.01;
#X obj 715 125 nbx 5 17 -1e+37 1e+37 0 0 s-num5 r-num5 empty 0 -10 0 12 #fcfcfc #000000 #000000 0 256;
#X obj 1626 126 s moddepth;
#X obj 716 151 nbx 5 17 -1e+37 1e+37 0 0 s-num6 r-num6 empty 0 -10 0 12 #fcfcfc #000000 #000000 0 256;
#X obj 1781 128 s vol;
#X obj 1781 82 / 3;
#X obj 1991 64 r f;
#X obj 1991 157 route 1 2 3 4;
#X obj 2072 67 r oscnum;
#X obj 1932 231 s f1;
#X obj 2012 230 s f2;
#X obj 2090 231 s f3;
#X obj 2164 231 s f4;
#X obj 62 488 r f1;
#X obj 2349 153 route 1 2 3 4;
#X obj 2430 63 r oscnum;
#X obj 2349 60 r f_cutoff;
#X obj 2290 227 s f_cut1;
#X obj 2370 226 s f_cut2;
#X obj 2448 227 s f_cut3;
#X obj 2522 227 s f_cut4;
#X obj 115 486 r f_cut1;
#X obj 2682 151 route 1 2 3 4;
#X obj 2763 61 r oscnum;
#X obj 2357 123 route 1 2 3 4;
#X obj 2438 33 r oscnum;
#X obj 2673 122 route 1 2 3 4;
#X obj 2754 32 r oscnum;
#X obj 2682 58 r f_mod;
#X obj 2357 30 r moddepth;
#X obj 2673 29 r vol;
#X obj 2623 225 s f_mod1;
#X obj 2703 224 s f_mod2;
#X obj 2781 225 s f_mod3;
#X obj 2855 225 s f_mod4;
#X obj 2298 197 s mod1;
#X obj 2378 196 s mod2;
#X obj 2456 197 s mod3;
#X obj 2530 197 s mod4;
#X obj 2694 195 s vol2;
#X obj 2772 196 s vol3;
#X obj 2846 196 s vol4;
#X obj 192 484 r f_mod1;
#X obj 289 485 r mod1;
#X obj 366 485 r vol1;
#X obj 2614 196 s vol1;
#X obj 1626 80 / 10;
#X obj 2357 76 list prepend 1;
#X obj 568 482 r f_cut2;
#X obj 515 484 r f2;
#X obj 645 480 r f_mod2;
#X obj 742 481 r mod2;
#X obj 819 481 r vol2;
#X obj 965 480 r f3;
#X obj 1018 478 r f_cut3;
#X obj 1095 476 r f_mod3;
#X obj 1192 477 r mod3;
#X obj 1269 477 r vol3;
#X obj 1494 479 r f4;
#X obj 1547 477 r f_cut4;
#X obj 1624 475 r f_mod4;
#X obj 1721 476 r mod4;
#X obj 1798 476 r vol4;
#X obj 1991 110 list prepend 1;
#X obj 2349 106 list prepend 1;
#X obj 2682 104 list prepend 1;
#X obj 2673 75 list prepend 1;
#X obj 1855 67 loadbang;
#X msg 1855 91 1;
#X obj 1061 215 loadbang;
#X msg 1061 238 4000;
#X obj 0 0 dac~;
#X obj 927 59 r s-num1;
#X obj 1126 56 r s-num2;
#X obj 1246 49 r s-num3;
#X obj 1440 48 r s-num4;
#X obj 1626 51 r s-num5;
#X obj 1781 52 r s-num6;
#X connect 0 0 8 0;
#X connect 1 0 9 0;
#X connect 2 0 10 0;
#X connect 3 0 11 0;
#X connect 4 0 107 0;
#X connect 5 0 107 0;
#X connect 6 0 107 0;
#X connect 7 0 107 0;
#X connect 12 0 16 0;
#X connect 13 0 16 0;
#X connect 14 0 16 0;
#X connect 15 0 16 0;
#X connect 18 0 20 0;
#X connect 18 1 19 1;
#X connect 19 0 25 0;
#X connect 20 0 19 0;
#X connect 23 0 24 0;
#X connect 23 1 24 1;
#X connect 24 0 26 0;
#X connect 26 0 27 0;
#X connect 27 0 28 0;
#X connect 27 1 29 1;
#X connect 28 0 29 0;
#X connect 29 0 30 0;
#X connect 32 0 33 0;
#X connect 32 1 34 1;
#X connect 33 0 34 0;
#X connect 34 0 36 0;
#X connect 36 0 35 0;
#X connect 41 0 40 0;
#X connect 42 0 99 0;
#X connect 43 0 45 0;
#X connect 43 1 46 0;
#X connect 43 2 47 0;
#X connect 43 3 48 0;
#X connect 44 0 99 1;
#X connect 49 0 0 0;
#X connect 50 0 53 0;
#X connect 50 1 54 0;
#X connect 50 2 55 0;
#X connect 50 3 56 0;
#X connect 51 0 100 1;
#X connect 52 0 100 0;
#X connect 57 0 0 1;
#X connect 58 0 67 0;
#X connect 58 1 68 0;
#X connect 58 2 69 0;
#X connect 58 3 70 0;
#X connect 59 0 101 1;
#X connect 60 0 71 0;
#X connect 60 1 72 0;
#X connect 60 2 73 0;
#X connect 60 3 74 0;
#X connect 61 0 83 1;
#X connect 62 0 81 0;
#X connect 62 1 75 0;
#X connect 62 2 76 0;
#X connect 62 3 77 0;
#X connect 63 0 102 1;
#X connect 64 0 101 0;
#X connect 65 0 83 0;
#X connect 66 0 102 0;
#X connect 78 0 0 2;
#X connect 79 0 0 3;
#X connect 80 0 0 4;
#X connect 82 0 38 0;
#X connect 83 0 60 0;
#X connect 84 0 1 1;
#X connect 85 0 1 0;
#X connect 86 0 1 2;
#X connect 87 0 1 3;
#X connect 88 0 1 4;
#X connect 89 0 2 0;
#X connect 90 0 2 1;
#X connect 91 0 2 2;
#X connect 92 0 2 3;
#X connect 93 0 2 4;
#X connect 94 0 3 0;
#X connect 95 0 3 1;
#X connect 96 0 3 2;
#X connect 97 0 3 3;
#X connect 98 0 3 4;
#X connect 99 0 43 0;
#X connect 100 0 50 0;
#X connect 101 0 58 0;
#X connect 102 0 62 0;
#X connect 103 0 104 0;
#X connect 104 0 40 0;
#X connect 105 0 106 0;
#X connect 106 0 30 0;
#X connect 108 0 18 0;
#X connect 109 0 24 0;
#X connect 110 0 23 0;
#X connect 111 0 32 0;
#X connect 112 0 82 0;
#X connect 113 0 41 0;
